PathFileType	4	(X/Y/Z)	C:\Users\italobelli\Desktop\GitHub\PTbot_officialCBL\Personal_Results\FLX02_noisy1.trc
DataRate	CameraRate	NumFrames	NumMarkers	Units	OrigDataRate	OrigDataStartFrame	OrigNumFrames
106.125000	106.125000	29	9	m	106.125000	213	850
Frame#	Time		gu		centelbow		EpL		centpxt8		centijc7		ij		ts		aa		ai
			X1	Y1	Z1	X2	Y2	Z2	X3	Y3	Z3	X4	Y4	Z4	X5	Y5	Z5	X6	Y6	Z6	X7	Y7	Z7	X8	Y8	Z8	X9	Y9	Z9

213	1.9976	-0.062271	0.021568	0.1544	0.1541	-0.043058	0.23618	0.15167	-0.015823	0.25325	-0.046816	-0.15316	-0.008669	-0.046816	0.031938	-0.008669	0	0	0	-0.14693	-0.0045814	0.068683	-0.093033	0.041723	0.16446	-0.13533	-0.10627	0.1178
214	2.0071	-0.062359	0.022027	0.15412	0.15437	-0.040547	0.2365	0.15177	-0.013245	0.2535	-0.046816	-0.15316	-0.008669	-0.046816	0.031938	-0.008669	0	0	0	-0.147	-0.0047013	0.068725	-0.092971	0.042062	0.16426	-0.13521	-0.10616	0.11824
215	2.0165	-0.062462	0.02249	0.15383	0.15463	-0.038025	0.23682	0.15183	-0.010656	0.25372	-0.046816	-0.15316	-0.008669	-0.046816	0.031938	-0.008669	0	0	0	-0.14708	-0.0048147	0.068761	-0.092919	0.042409	0.16406	-0.13509	-0.10604	0.11869
216	2.0259	-0.062579	0.022956	0.15352	0.15488	-0.035489	0.23712	0.15188	-0.0080564	0.25393	-0.046816	-0.15316	-0.008669	-0.046816	0.031938	-0.008669	0	0	0	-0.14716	-0.0049219	0.068792	-0.092878	0.042763	0.16384	-0.13498	-0.10591	0.11913
217	2.0353	-0.062711	0.023425	0.15321	0.15511	-0.032942	0.2374	0.1519	-0.0054461	0.25411	-0.046816	-0.15316	-0.008669	-0.046816	0.031938	-0.008669	0	0	0	-0.14724	-0.005023	0.068819	-0.092847	0.043123	0.16362	-0.13487	-0.10578	0.11957
218	2.0448	-0.062857	0.023898	0.15289	0.15532	-0.030384	0.23768	0.1519	-0.0028258	0.25427	-0.046816	-0.15316	-0.008669	-0.046816	0.031938	-0.008669	0	0	0	-0.14732	-0.0051184	0.06884	-0.092826	0.043489	0.16338	-0.13476	-0.10564	0.12
219	2.0542	-0.063016	0.024373	0.15256	0.15552	-0.027815	0.23794	0.15187	-0.00019623	0.2544	-0.046816	-0.15316	-0.008669	-0.046816	0.031938	-0.008669	0	0	0	-0.14741	-0.0052083	0.068858	-0.092815	0.043861	0.16314	-0.13466	-0.10549	0.12044
220	2.0636	-0.063188	0.024851	0.15223	0.1557	-0.025235	0.23819	0.15183	0.0024422	0.25452	-0.046816	-0.15316	-0.008669	-0.046816	0.031938	-0.008669	0	0	0	-0.1475	-0.005293	0.06887	-0.092814	0.044239	0.16289	-0.13457	-0.10533	0.12087
221	2.073	-0.063373	0.025331	0.15188	0.15586	-0.022646	0.23843	0.15176	0.0050888	0.25461	-0.046816	-0.15316	-0.008669	-0.046816	0.031938	-0.008669	0	0	0	-0.14759	-0.0053727	0.068878	-0.092822	0.044623	0.16263	-0.13448	-0.10517	0.12129
222	2.0824	-0.06357	0.025813	0.15153	0.15601	-0.020047	0.23865	0.15166	0.0077432	0.25468	-0.046816	-0.15316	-0.008669	-0.046816	0.031938	-0.008669	0	0	0	-0.14768	-0.0054477	0.068881	-0.092839	0.045011	0.16236	-0.13439	-0.105	0.12172
223	2.0919	-0.063779	0.026296	0.15116	0.15614	-0.017439	0.23887	0.15155	0.010405	0.25473	-0.046816	-0.15316	-0.008669	-0.046816	0.031938	-0.008669	0	0	0	-0.14778	-0.0055182	0.068881	-0.092866	0.045405	0.16209	-0.13431	-0.10483	0.12214
224	2.1013	-0.063999	0.026781	0.15079	0.15625	-0.014823	0.23907	0.15141	0.013073	0.25476	-0.046816	-0.15316	-0.008669	-0.046816	0.031938	-0.008669	0	0	0	-0.14788	-0.0055845	0.068876	-0.092901	0.045803	0.1618	-0.13423	-0.10465	0.12255
225	2.1107	-0.06423	0.027267	0.15042	0.15634	-0.0122	0.23925	0.15125	0.015747	0.25477	-0.046816	-0.15316	-0.008669	-0.046816	0.031938	-0.008669	0	0	0	-0.14798	-0.0056469	0.068867	-0.092945	0.046206	0.16151	-0.13415	-0.10446	0.12297
226	2.1201	-0.064471	0.027754	0.15004	0.15642	-0.0095683	0.23943	0.15106	0.018426	0.25476	-0.046816	-0.15316	-0.008669	-0.046816	0.031938	-0.008669	0	0	0	-0.14808	-0.0057055	0.068854	-0.092997	0.046612	0.16121	-0.13408	-0.10427	0.12338
227	2.1296	-0.064722	0.028241	0.14965	0.15647	-0.0069302	0.23959	0.15086	0.021111	0.25474	-0.046816	-0.15316	-0.008669	-0.046816	0.031938	-0.008669	0	0	0	-0.14818	-0.0057608	0.068837	-0.093057	0.047023	0.16091	-0.13401	-0.10407	0.12379
228	2.139	-0.064982	0.028729	0.14925	0.15651	-0.0042858	0.23974	0.15062	0.023799	0.25469	-0.046816	-0.15316	-0.008669	-0.046816	0.031938	-0.008669	0	0	0	-0.14829	-0.0058128	0.068817	-0.093126	0.047437	0.1606	-0.13394	-0.10386	0.12419
229	2.1484	-0.065251	0.029217	0.14885	0.15652	-0.0016355	0.23988	0.15037	0.026492	0.25462	-0.046816	-0.15316	-0.008669	-0.046816	0.031938	-0.008669	0	0	0	-0.1484	-0.005862	0.068793	-0.093202	0.047854	0.16028	-0.13388	-0.10365	0.1246
230	2.1578	-0.065529	0.029704	0.14844	0.15652	0.0010202	0.24001	0.15009	0.029188	0.25454	-0.046816	-0.15316	-0.008669	-0.046816	0.031938	-0.008669	0	0	0	-0.14851	-0.0059084	0.068765	-0.093285	0.048275	0.15995	-0.13382	-0.10344	0.125
231	2.1673	-0.065815	0.030192	0.14803	0.15649	0.0036807	0.24012	0.14979	0.031886	0.25444	-0.046816	-0.15316	-0.008669	-0.046816	0.031938	-0.008669	0	0	0	-0.14862	-0.0059525	0.068734	-0.093376	0.048698	0.15962	-0.13376	-0.10322	0.12539
232	2.1767	-0.066108	0.030678	0.14761	0.15644	0.0063456	0.24022	0.14947	0.034587	0.25432	-0.046816	-0.15316	-0.008669	-0.046816	0.031938	-0.008669	0	0	0	-0.14873	-0.0059944	0.0687	-0.093474	0.049123	0.15929	-0.1337	-0.103	0.12579
233	2.1861	-0.066409	0.031163	0.14719	0.15638	0.0090144	0.24031	0.14913	0.037289	0.25419	-0.046816	-0.15316	-0.008669	-0.046816	0.031938	-0.008669	0	0	0	-0.14884	-0.0060344	0.068662	-0.093579	0.049551	0.15894	-0.13364	-0.10277	0.12618
234	2.1955	-0.066716	0.031647	0.14677	0.15629	0.011687	0.24038	0.14876	0.039992	0.25404	-0.046816	-0.15316	-0.008669	-0.046816	0.031938	-0.008669	0	0	0	-0.14895	-0.0060728	0.068621	-0.093691	0.049981	0.1586	-0.13359	-0.10254	0.12656
235	2.2049	-0.067029	0.032129	0.14634	0.15618	0.014362	0.24045	0.14837	0.042695	0.25387	-0.046816	-0.15316	-0.008669	-0.046816	0.031938	-0.008669	0	0	0	-0.14906	-0.0061098	0.068577	-0.093809	0.050413	0.15824	-0.13354	-0.1023	0.12695
236	2.2144	-0.067348	0.032609	0.1459	0.15605	0.017039	0.2405	0.14795	0.045399	0.25369	-0.046816	-0.15316	-0.008669	-0.046816	0.031938	-0.008669	0	0	0	-0.14918	-0.0061456	0.06853	-0.093934	0.050846	0.15789	-0.13348	-0.10206	0.12733
237	2.2238	-0.067673	0.033087	0.14546	0.15589	0.019718	0.24053	0.14751	0.048101	0.25349	-0.046816	-0.15316	-0.008669	-0.046816	0.031938	-0.008669	0	0	0	-0.14929	-0.0061806	0.068481	-0.094064	0.05128	0.15752	-0.13343	-0.10182	0.12771
238	2.2332	-0.068002	0.033563	0.14502	0.15571	0.022399	0.24056	0.14705	0.050803	0.25327	-0.046816	-0.15316	-0.008669	-0.046816	0.031938	-0.008669	0	0	0	-0.14941	-0.006215	0.068428	-0.094201	0.051715	0.15716	-0.13338	-0.10157	0.12808
239	2.2426	-0.068336	0.034036	0.14458	0.15551	0.02508	0.24057	0.14657	0.053503	0.25305	-0.046816	-0.15316	-0.008669	-0.046816	0.031938	-0.008669	0	0	0	-0.14952	-0.0062491	0.068374	-0.094343	0.052151	0.15679	-0.13334	-0.10132	0.12845
240	2.2521	-0.068674	0.034506	0.14414	0.15529	0.027762	0.24057	0.14606	0.0562	0.2528	-0.046816	-0.15316	-0.008669	-0.046816	0.031938	-0.008669	0	0	0	-0.14964	-0.006283	0.068316	-0.09449	0.052587	0.15641	-0.13329	-0.10107	0.12882
241	2.2615	-0.069015	0.034973	0.14369	0.15504	0.030444	0.24056	0.14553	0.058894	0.25255	-0.046816	-0.15316	-0.008669	-0.046816	0.031938	-0.008669	0	0	0	-0.14975	-0.0063171	0.068256	-0.094643	0.053024	0.15604	-0.13324	-0.10082	0.12919
